<svg xmlns="http://www.w3.org/2000/svg" xmlns:v="https://svgstorm.com"
viewBox = "0 0 500 500"
width="500"
height="500">
<g fill="None" fill-opacity="0.0" stroke="#000000" stroke-opacity="0.00" stroke-width="0.3"><path d="
M 0.00 500.00 
L 500.00 500.00
L 500.00 0.00
L 0.00 0.00
L 0.00 500.00
M 304.00 208.00 
C 307.76 211.76 304.16 222.41 305.00 228.00 C 305.84 233.59 305.37 243.96 304.00 249.00
C 302.59 254.20 296.22 260.82 290.78 260.78 C 285.33 260.73 274.26 258.32 276.33 251.33 C 278.41 244.34 289.08 251.65 292.00 246.00
C 293.81 240.64 290.40 232.32 292.00 227.00 C 293.60 221.68 289.13 211.87 293.00 208.00
C 294.78 206.22 302.26 206.26 304.00 208.00
M 353.00 257.00 
C 353.84 257.82 354.22 258.60 354.00 260.00
C 349.97 258.94 341.95 262.64 341.00 257.00
C 337.42 250.95 338.79 248.11 330.00 249.00 C 321.21 249.89 321.22 249.26 319.00 257.00
C 318.87 257.46 319.23 258.65 319.00 259.00
C 316.61 262.67 306.87 260.18 307.00 257.00
C 307.67 240.35 320.15 224.39 322.00 208.00
C 327.67 208.00 333.33 208.00 339.00 208.00
C 342.38 224.52 349.56 240.10 353.00 257.00
M 395.00 210.00 
C 396.51 208.25 408.75 205.73 412.00 208.00
C 414.61 209.83 412.61 215.63 413.00 219.00 C 413.39 222.37 413.00 228.39 413.00 232.00
C 413.00 235.78 413.84 241.41 413.00 245.00 C 412.16 248.59 415.02 256.11 413.00 259.00
C 411.71 260.84 402.25 260.79 401.00 259.00
C 398.35 255.21 402.59 246.53 401.00 242.00 C 399.41 237.47 403.01 229.87 400.00 226.00
C 396.86 236.32 393.85 247.01 390.00 257.00
C 389.78 257.38 390.23 258.65 390.00 259.00
C 388.67 261.04 380.85 260.84 380.00 258.00
C 379.86 257.54 380.00 257.00 380.00 257.00
C 376.91 247.35 374.53 237.37 371.00 228.00
C 371.47 234.33 367.38 242.92 370.00 250.00 C 372.62 257.08 364.12 265.32 358.00 259.00
C 357.75 258.74 358.00 258.00 358.00 258.00
C 358.00 241.33 358.00 224.67 358.00 208.00
C 363.67 208.00 369.33 208.00 375.00 208.00
C 378.30 218.61 381.28 229.37 385.00 240.00
C 389.57 230.83 391.08 219.76 395.00 210.00
M 126.00 259.00 
C 124.13 261.63 121.84 261.58 120.00 259.00
C 116.55 254.16 119.38 238.88 119.00 233.00 C 118.62 227.12 116.39 209.09 123.01 209.01 C 129.63 208.92 127.50 226.08 127.00 232.00 C 126.50 237.92 129.50 254.09 126.00 259.00
M 168.00 259.00 
C 168.00 242.33 168.00 225.67 168.00 209.00
C 187.10 206.11 207.12 211.50 208.00 233.00 C 208.88 254.50 186.58 262.45 168.00 259.00
M 103.00 218.00 
C 109.90 222.63 95.92 231.07 93.00 235.00
C 93.81 241.78 106.21 241.26 104.97 249.03 C 103.74 256.79 95.36 248.06 91.25 243.75 C 87.14 239.44 81.37 232.78 90.00 228.00
C 92.63 224.92 99.25 215.48 103.00 218.00
M 137.00 248.00 
C 141.97 245.17 144.40 238.93 149.00 237.00
C 147.05 230.41 144.39 230.46 139.25 224.75 C 134.11 219.04 143.59 216.00 146.75 222.25 C 149.91 228.49 155.08 227.34 157.75 233.25 C 160.42 239.16 151.28 242.48 148.75 246.75 C 146.23 251.03 138.24 256.36 137.00 248.00
M 244.00 243.00 
C 242.96 244.38 233.52 243.83 231.00 244.00
C 228.75 244.15 222.24 245.24 221.00 245.00
C 224.82 252.71 228.24 250.88 235.00 248.00
C 237.45 246.95 243.03 245.41 244.00 249.00
C 245.05 252.87 235.25 258.93 230.99 258.99 C 226.74 259.05 217.41 258.38 214.25 252.75 C 211.08 247.12 209.55 240.69 211.32 234.32 C 213.10 227.96 216.20 224.50 222.08 222.08 C 227.95 219.65 235.45 221.89 239.25 225.75 C 243.04 229.62 246.84 239.22 244.00 243.00
M 254.00 223.00 
C 259.33 227.64 256.93 241.10 262.00 246.00
C 265.37 238.90 267.02 230.55 270.00 223.00
C 272.32 221.09 278.68 221.54 281.00 223.00
C 273.64 232.29 275.26 248.07 268.00 257.00
C 265.36 260.24 258.65 259.95 256.00 257.00
C 253.15 253.83 251.70 245.50 250.07 240.93 C 248.45 236.35 242.86 228.73 243.00 224.00
C 243.08 221.29 251.50 220.82 254.00 223.00
M 112.00 225.00 
C 118.99 225.85 115.10 247.52 109.33 244.67 C 103.56 241.81 107.22 224.42 112.00 225.00
M 137.00 227.00 
C 140.23 229.18 140.07 240.20 138.00 243.00
C 137.22 244.06 134.57 245.76 133.00 245.00
C 131.78 246.07 129.10 239.96 130.00 238.00 C 130.91 236.04 129.48 231.07 131.00 229.00
C 131.22 228.70 131.82 228.27 132.00 228.00
C 133.39 225.94 134.82 225.53 137.00 227.00
M 104.00 276.00 
C 111.25 283.25 98.42 303.45 94.00 288.00
C 96.74 287.02 98.54 292.42 101.00 289.00
C 103.13 285.71 99.40 278.63 101.00 275.00
C 102.00 275.11 103.73 274.53 104.00 276.00
M 210.00 280.00 
C 211.97 280.90 214.36 279.82 216.00 282.00
C 217.29 283.72 218.20 291.57 216.00 293.00
C 215.65 293.23 214.35 293.23 214.00 293.00
C 211.23 291.20 214.59 286.22 213.00 284.00
C 211.62 282.69 210.36 282.71 209.00 284.00
C 207.67 285.85 210.89 292.06 208.00 293.00
C 205.01 293.98 204.74 274.05 208.00 275.00
C 209.59 275.46 208.78 278.85 210.00 280.00
M 267.00 281.00 
C 262.34 279.98 256.10 274.76 255.01 283.01 C 253.92 291.25 261.77 290.68 267.00 288.00
C 264.17 296.57 251.69 294.30 251.01 284.99 C 250.33 275.68 264.13 271.08 267.00 281.00
M 283.00 289.00 
C 282.75 288.72 281.09 288.20 281.00 288.00
C 280.28 295.27 269.62 295.13 268.23 287.77 C 266.84 280.41 279.73 276.26 281.00 285.00
C 281.24 284.49 282.66 284.31 283.00 284.00
C 284.95 282.18 285.19 278.91 289.01 280.01 C 292.82 281.11 290.84 275.00 294.00 275.00
C 294.00 281.00 294.00 287.00 294.00 293.00
C 289.80 293.95 284.57 293.93 283.00 289.00
M 321.00 283.00 
C 320.26 285.68 322.56 291.34 320.00 293.00
C 319.65 293.23 318.35 293.23 318.00 293.00
C 316.90 292.29 315.83 283.43 316.00 282.00
C 316.34 279.14 319.94 273.84 324.00 275.00
C 323.61 277.00 318.27 280.27 324.00 280.00
C 324.32 281.69 322.68 283.29 321.00 283.00
M 153.00 280.00 
C 154.02 281.92 154.19 283.37 151.00 283.00
C 151.00 285.33 151.00 287.67 151.00 290.00
C 150.97 289.86 154.72 291.28 153.00 293.00
C 151.67 293.00 150.33 293.00 149.00 293.00
C 145.54 291.71 147.24 285.89 147.00 283.00
C 146.20 279.60 145.93 280.86 149.00 277.00
C 150.26 278.24 150.11 280.91 153.00 280.00
M 204.00 282.00 
C 203.74 283.39 201.95 282.78 201.00 283.00
C 201.00 285.33 201.00 287.67 201.00 290.00
C 201.17 290.38 205.49 290.77 204.00 293.00
C 195.51 293.62 196.43 281.40 198.00 277.00
C 199.69 278.87 202.87 279.54 204.00 282.00
M 118.00 293.00 
C 114.05 292.07 109.22 296.42 107.08 290.92 C 104.95 285.42 113.31 286.46 114.00 283.00
C 111.00 281.56 109.41 285.83 107.00 284.00
C 112.23 273.84 121.75 284.68 118.00 293.00
M 128.00 293.00 
C 125.23 291.65 128.31 286.10 127.00 284.00
C 121.60 278.60 124.56 293.84 121.00 293.00
C 118.68 289.10 119.85 284.56 120.00 280.00
C 129.16 279.86 142.33 278.32 138.00 293.00
C 132.70 293.67 135.86 286.15 135.00 283.00
C 129.13 282.13 131.44 289.53 131.00 293.00
C 130.00 293.00 129.00 293.00 128.00 293.00
M 167.00 285.00 
C 167.28 284.48 168.64 284.34 169.00 284.00
C 173.03 280.24 175.45 279.58 181.00 280.00
C 182.82 288.75 180.88 304.43 169.00 296.00
C 171.27 294.03 179.03 298.72 178.00 292.00
C 174.95 295.00 170.98 293.14 169.00 290.00
C 168.74 289.79 167.09 289.16 167.00 289.00
C 165.34 296.14 154.96 294.24 155.00 287.00 C 155.05 279.75 165.72 276.68 167.00 285.00
M 195.00 288.00 
C 192.24 288.84 186.43 286.04 186.00 290.00
C 189.29 292.12 191.72 288.31 195.00 290.00
C 191.51 296.33 180.58 293.13 182.34 285.32 C 184.09 277.51 197.02 278.94 195.00 288.00
M 230.00 288.00 
C 227.00 288.00 224.00 288.00 221.00 288.00
C 223.12 293.20 226.97 288.16 230.00 290.00
C 227.51 297.15 216.22 292.66 218.00 285.00 C 219.78 277.34 233.21 278.84 230.00 288.00
M 239.00 280.00 
C 237.28 283.80 234.75 287.63 236.00 293.00
C 228.89 294.15 233.16 284.18 232.00 280.00
C 234.67 280.49 236.27 280.46 239.00 280.00
M 309.00 288.00 
C 306.24 288.84 300.43 286.04 300.00 290.00
C 302.90 292.23 305.32 288.43 308.00 290.00
C 305.22 296.63 295.20 292.89 297.00 285.00 C 298.80 277.11 310.77 279.45 309.00 288.00
M 333.00 280.00 
C 339.86 282.57 336.78 296.00 328.78 293.22 C 320.78 290.44 324.04 276.64 333.00 280.00
M 339.00 293.00 
C 336.79 292.28 337.66 281.19 339.00 280.00
C 339.70 279.38 343.82 281.36 345.00 280.00
C 342.05 283.36 341.72 290.24 339.00 293.00
M 358.00 288.00 
C 355.16 288.59 351.02 286.78 349.00 289.00
C 351.80 292.83 354.69 288.15 358.00 290.00
C 354.14 296.47 344.55 292.92 346.00 285.00 C 347.45 277.08 360.36 279.43 358.00 288.00
M 365.00 289.00 
C 368.03 286.81 366.20 279.51 371.00 280.00
C 370.19 283.13 369.63 293.21 364.97 292.97 C 360.32 292.74 361.15 282.93 359.00 280.00
C 364.47 278.63 363.25 285.77 365.00 289.00
M 384.00 288.00 
C 381.48 288.56 377.70 286.81 376.00 289.00
C 377.82 293.96 381.35 287.25 384.00 290.00
C 381.07 296.80 370.37 292.89 371.80 285.75 C 373.24 278.62 386.46 278.23 384.00 288.00
M 390.00 285.00 
C 389.45 287.11 391.31 291.88 389.00 293.00
C 388.19 293.39 386.85 292.69 386.00 293.00
C 386.00 288.67 386.00 284.33 386.00 280.00
C 388.22 280.61 393.04 278.38 393.00 282.00
C 391.78 282.93 389.57 282.83 390.00 285.00
M 240.00 293.00 
C 239.45 286.25 247.59 293.87 240.00 293.00
M 397.00 290.00 
C 397.43 297.06 388.95 288.39 397.00 290.00 Z"/>
</g>
<g fill="None" fill-opacity="0.0" stroke="#2B205E" stroke-opacity="0.16" stroke-width="0.3"><path d="
M 293.00 208.00 
C 296.67 208.00 300.33 208.00 304.00 208.00
C 302.26 206.26 294.78 206.22 293.00 208.00 Z"/>
</g>
<g fill="None" fill-opacity="0.0" stroke="#000048" stroke-opacity="0.03" stroke-width="0.3"><path d="
M 292.00 246.00 
C 297.29 235.77 290.12 219.36 293.00 208.00
C 289.13 211.87 293.60 221.68 292.00 227.00 C 290.40 232.32 293.81 240.64 292.00 246.00 Z"/>
</g>
<g fill="None" fill-opacity="0.0" stroke="#6D61F0" stroke-opacity="0.96" stroke-width="0.3"><path d="
M 292.00 246.00 
C 289.08 251.65 278.41 244.34 276.33 251.33 C 274.26 258.32 285.33 260.73 290.78 260.78 C 296.22 260.82 302.59 254.20 304.00 249.00
C 305.91 235.61 302.56 221.46 304.00 208.00
C 300.33 208.00 296.67 208.00 293.00 208.00
C 290.12 219.36 297.29 235.77 292.00 246.00 Z"/>
</g>
<g fill="None" fill-opacity="0.0" stroke="#010039" stroke-opacity="0.03" stroke-width="0.3"><path d="
M 304.00 249.00 
C 305.37 243.96 305.84 233.59 305.00 228.00 C 304.16 222.41 307.76 211.76 304.00 208.00
C 302.56 221.46 305.91 235.61 304.00 249.00 Z"/>
</g>
<g fill="None" fill-opacity="0.0" stroke="#6C5FEE" stroke-opacity="0.93" stroke-width="0.3"><path d="
M 307.00 257.00 
C 309.11 260.33 316.59 256.72 319.00 257.00
C 321.22 249.26 321.21 249.89 330.00 249.00 C 338.79 248.11 337.42 250.95 341.00 257.00
C 341.16 257.27 341.74 257.76 342.00 258.00
C 345.09 258.69 349.84 258.28 353.00 258.00
C 353.25 257.74 353.00 257.00 353.00 257.00
C 349.56 240.10 342.38 224.52 339.00 208.00
C 333.33 208.00 327.67 208.00 322.00 208.00
C 320.15 224.39 307.67 240.35 307.00 257.00
M 331.00 224.00 
C 332.80 228.24 333.20 232.85 335.00 237.00
C 335.11 237.26 335.78 237.70 336.00 238.00
C 337.77 240.45 325.24 241.22 324.00 239.00
C 324.05 239.02 324.65 238.05 325.00 238.00
C 327.17 234.33 327.97 228.19 329.00 224.00
C 329.39 222.41 329.67 221.84 329.00 220.00
C 331.53 219.37 330.90 222.53 331.00 224.00 Z"/>
</g>
<g fill="None" fill-opacity="0.0" stroke="#6D60F0" stroke-opacity="0.94" stroke-width="0.3"><path d="
M 358.00 258.00 
C 361.31 257.70 364.69 258.23 368.00 258.00
C 368.65 252.50 366.68 245.67 369.00 241.00
C 369.00 235.33 369.00 229.67 369.00 224.00
C 370.35 224.73 369.96 226.83 371.00 228.00
C 374.53 237.37 376.91 247.35 380.00 257.00
C 383.75 258.90 386.68 256.61 390.00 257.00
C 393.85 247.01 396.86 236.32 400.00 226.00
C 403.01 229.87 399.41 237.47 401.00 242.00 C 402.59 246.53 398.35 255.21 401.00 259.00
C 405.00 259.00 409.00 259.00 413.00 259.00
C 415.02 256.11 412.16 248.59 413.00 245.00 C 413.84 241.41 413.00 235.78 413.00 232.00
C 412.39 225.65 412.00 218.04 412.00 211.00
C 410.43 207.85 397.77 207.74 395.00 210.00
C 391.08 219.76 389.57 230.83 385.00 240.00
C 381.28 229.37 378.30 218.61 375.00 208.00
C 369.33 208.00 363.67 208.00 358.00 208.00
C 358.00 224.67 358.00 241.33 358.00 258.00 Z"/>
</g>
<g fill="None" fill-opacity="0.0" stroke="#665BBE" stroke-opacity="0.62" stroke-width="0.3"><path d="
M 395.00 210.00 
C 397.77 207.74 410.43 207.85 412.00 211.00
C 412.00 210.00 412.00 209.00 412.00 208.00
C 408.75 205.73 396.51 208.25 395.00 210.00 Z"/>
</g>
<g fill="None" fill-opacity="0.0" stroke="#100B3E" stroke-opacity="0.09" stroke-width="0.3"><path d="
M 412.00 211.00 
C 412.00 218.04 412.39 225.65 413.00 232.00
C 413.00 228.39 413.39 222.37 413.00 219.00 C 412.61 215.63 414.61 209.83 412.00 208.00
C 412.00 209.00 412.00 210.00 412.00 211.00 Z"/>
</g>
<g fill="None" fill-opacity="0.0" stroke="#221A58" stroke-opacity="0.21" stroke-width="0.3"><path d="
M 120.00 259.00 
C 116.83 252.39 121.59 242.41 120.00 235.00 C 118.41 227.59 121.19 217.64 120.00 210.00
C 130.68 207.94 124.27 222.74 126.00 229.00
C 126.00 233.33 126.00 237.67 126.00 242.00
C 126.00 246.20 127.78 255.28 126.00 259.00
C 129.50 254.09 126.50 237.92 127.00 232.00 C 127.50 226.08 129.63 208.92 123.01 209.01 C 116.39 209.09 118.62 227.12 119.00 233.00 C 119.38 238.88 116.55 254.16 120.00 259.00 Z"/>
</g>
<g fill="None" fill-opacity="0.0" stroke="#F6F5F7" stroke-opacity="0.96" stroke-width="0.3"><path d="
M 168.00 259.00 
C 186.58 262.45 208.88 254.50 208.00 233.00 C 207.12 211.50 187.10 206.11 168.00 209.00
C 168.00 225.67 168.00 242.33 168.00 259.00
M 179.00 249.00 
C 179.00 238.67 179.00 228.33 179.00 218.00
C 202.64 212.08 202.62 255.21 179.00 249.00 Z"/>
</g>
<g fill="None" fill-opacity="0.0" stroke="#6F61F0" stroke-opacity="0.97" stroke-width="0.3"><path d="
M 120.00 259.00 
C 121.84 261.58 124.13 261.63 126.00 259.00
C 127.78 255.28 126.00 246.20 126.00 242.00
C 125.60 237.91 125.61 233.02 126.00 229.00
C 124.27 222.74 130.68 207.94 120.00 210.00
C 121.19 217.64 118.41 227.59 120.00 235.00 C 121.59 242.41 116.83 252.39 120.00 259.00 Z"/>
</g>
<g fill="None" fill-opacity="0.0" stroke="#77747F" stroke-opacity="0.15" stroke-width="0.3"><path d="
M 90.00 228.00 
C 92.23 225.77 99.70 216.81 103.00 218.00
C 99.25 215.48 92.63 224.92 90.00 228.00 Z"/>
</g>
<g fill="None" fill-opacity="0.0" stroke="#F1EFF2" stroke-opacity="0.91" stroke-width="0.3"><path d="
M 90.00 228.00 
C 81.37 232.78 87.14 239.44 91.25 243.75 C 95.36 248.06 103.74 256.79 104.97 249.03 C 106.21 241.26 93.81 241.78 93.00 235.00
C 95.92 231.07 109.90 222.63 103.00 218.00
C 99.70 216.81 92.23 225.77 90.00 228.00 Z"/>
</g>
<g fill="None" fill-opacity="0.0" stroke="#EBEAED" stroke-opacity="0.89" stroke-width="0.3"><path d="
M 137.00 248.00 
C 138.24 256.36 146.23 251.03 148.75 246.75 C 151.28 242.48 160.42 239.16 157.75 233.25 C 155.08 227.34 149.91 228.49 146.75 222.25 C 143.59 216.00 134.11 219.04 139.25 224.75 C 144.39 230.46 147.05 230.41 149.00 237.00
C 144.40 238.93 141.97 245.17 137.00 248.00 Z"/>
</g>
<g fill="None" fill-opacity="0.0" stroke="#000000" stroke-opacity="0.01" stroke-width="0.3"><path d="
M 179.00 249.00 
C 202.62 255.21 202.64 212.08 179.00 218.00
C 179.00 228.33 179.00 238.67 179.00 249.00 Z"/>
</g>
<g fill="None" fill-opacity="0.0" stroke="#342C91" stroke-opacity="0.22" stroke-width="0.3"><path d="
M 329.00 224.00 
C 329.18 223.76 330.66 223.77 331.00 224.00
C 330.90 222.53 331.53 219.37 329.00 220.00
C 329.67 221.84 329.39 222.41 329.00 224.00 Z"/>
</g>
<g fill="None" fill-opacity="0.0" stroke="#F0EFF1" stroke-opacity="0.92" stroke-width="0.3"><path d="
M 244.00 249.00 
C 241.62 247.93 237.70 247.28 235.00 248.00
C 228.24 250.88 224.82 252.71 221.00 245.00
C 220.72 244.44 219.55 244.13 220.00 243.00
C 221.01 240.44 229.25 242.40 232.00 242.00 C 234.75 241.60 241.79 241.48 244.00 243.00
C 246.84 239.22 243.04 229.62 239.25 225.75 C 235.45 221.89 227.95 219.65 222.08 222.08 C 216.20 224.50 213.10 227.96 211.32 234.32 C 209.55 240.69 211.08 247.12 214.25 252.75 C 217.41 258.38 226.74 259.05 230.99 258.99 C 235.25 258.93 245.05 252.87 244.00 249.00
M 234.00 236.00 
C 229.67 236.00 225.33 236.00 221.00 236.00
C 220.61 227.45 234.38 227.45 234.00 236.00 Z"/>
</g>
<g fill="None" fill-opacity="0.0" stroke="#54515D" stroke-opacity="0.29" stroke-width="0.3"><path d="
M 243.00 224.00 
C 245.76 221.84 250.49 223.55 254.00 223.00
C 251.50 220.82 243.08 221.29 243.00 224.00 Z"/>
</g>
<g fill="None" fill-opacity="0.0" stroke="#58525E" stroke-opacity="0.31" stroke-width="0.3"><path d="
M 270.00 223.00 
C 272.77 221.42 278.01 224.18 281.00 223.00
C 278.68 221.54 272.32 221.09 270.00 223.00 Z"/>
</g>
<g fill="None" fill-opacity="0.0" stroke="#F2F1F3" stroke-opacity="0.93" stroke-width="0.3"><path d="
M 243.00 224.00 
C 242.86 228.73 248.45 236.35 250.07 240.93 C 251.70 245.50 253.15 253.83 256.00 257.00
C 258.24 258.73 265.83 258.91 268.00 257.00
C 275.26 248.07 273.64 232.29 281.00 223.00
C 278.01 224.18 272.77 221.42 270.00 223.00
C 267.02 230.55 265.37 238.90 262.00 246.00
C 256.93 241.10 259.33 227.64 254.00 223.00
C 250.49 223.55 245.76 221.84 243.00 224.00 Z"/>
</g>
<g fill="None" fill-opacity="0.0" stroke="#000000" stroke-opacity="0.01" stroke-width="0.3"><path d="
M 325.00 238.00 
C 328.52 237.49 332.01 237.90 335.00 237.00
C 333.20 232.85 332.80 228.24 331.00 224.00
C 330.66 223.77 329.18 223.76 329.00 224.00
C 327.97 228.19 327.17 234.33 325.00 238.00 Z"/>
</g>
<g fill="None" fill-opacity="0.0" stroke="#171054" stroke-opacity="0.07" stroke-width="0.3"><path d="
M 369.00 241.00 
C 369.00 247.00 369.00 253.00 369.00 259.00
C 365.33 259.00 361.67 259.00 358.00 259.00
C 364.12 265.32 372.62 257.08 370.00 250.00 C 367.38 242.92 371.47 234.33 371.00 228.00
C 369.96 226.83 370.35 224.73 369.00 224.00
C 369.00 229.67 369.00 235.33 369.00 241.00 Z"/>
</g>
<g fill="None" fill-opacity="0.0" stroke="#685CD5" stroke-opacity="0.81" stroke-width="0.3"><path d="
M 112.00 225.00 
C 107.22 224.42 103.56 241.81 109.33 244.67 C 115.10 247.52 118.99 225.85 112.00 225.00 Z"/>
</g>
<g fill="None" fill-opacity="0.0" stroke="#7063EC" stroke-opacity="0.95" stroke-width="0.3"><path d="
M 132.00 228.00 
C 133.45 232.52 131.01 238.34 132.00 243.00
C 132.11 243.19 132.94 244.97 133.00 245.00
C 134.57 245.76 137.22 244.06 138.00 243.00
C 139.15 240.75 138.76 228.76 137.00 227.00
C 134.82 225.53 133.39 225.94 132.00 228.00 Z"/>
</g>
<g fill="None" fill-opacity="0.0" stroke="#010245" stroke-opacity="0.03" stroke-width="0.3"><path d="
M 138.00 243.00 
C 140.07 240.20 140.23 229.18 137.00 227.00
C 138.76 228.76 139.15 240.75 138.00 243.00 Z"/>
</g>
<g fill="None" fill-opacity="0.0" stroke="#776CCA" stroke-opacity="0.72" stroke-width="0.3"><path d="
M 131.00 229.00 
C 130.43 232.96 130.29 239.90 132.00 243.00
C 131.01 238.34 133.45 232.52 132.00 228.00
C 131.82 228.27 131.22 228.70 131.00 229.00 Z"/>
</g>
<g fill="None" fill-opacity="0.0" stroke="#7768E5" stroke-opacity="0.83" stroke-width="0.3"><path d="
M 126.00 242.00 
C 126.00 237.67 126.00 233.33 126.00 229.00
C 125.61 233.02 125.60 237.91 126.00 242.00 Z"/>
</g>
<g fill="None" fill-opacity="0.0" stroke="#150D4C" stroke-opacity="0.08" stroke-width="0.3"><path d="
M 133.00 245.00 
C 132.94 244.97 132.11 243.19 132.00 243.00
C 130.29 239.90 130.43 232.96 131.00 229.00
C 129.48 231.07 130.91 236.04 130.00 238.00 C 129.10 239.96 131.78 246.07 133.00 245.00 Z"/>
</g>
<g fill="None" fill-opacity="0.0" stroke="#000000" stroke-opacity="0.02" stroke-width="0.3"><path d="
M 234.00 236.00 
C 234.38 227.45 220.61 227.45 221.00 236.00
C 225.33 236.00 229.67 236.00 234.00 236.00 Z"/>
</g>
<g fill="None" fill-opacity="0.0" stroke="#1C085D" stroke-opacity="0.06" stroke-width="0.3"><path d="
M 325.00 238.00 
C 324.65 238.05 324.05 239.02 324.00 239.00
C 326.02 239.65 335.04 239.73 336.00 238.00
C 335.78 237.70 335.11 237.26 335.00 237.00
C 332.01 237.90 328.52 237.49 325.00 238.00 Z"/>
</g>
<g fill="None" fill-opacity="0.0" stroke="#7A6CDB" stroke-opacity="0.72" stroke-width="0.3"><path d="
M 324.00 239.00 
C 325.24 241.22 337.77 240.45 336.00 238.00
C 335.04 239.73 326.02 239.65 324.00 239.00 Z"/>
</g>
<g fill="None" fill-opacity="0.0" stroke="#796CD1" stroke-opacity="0.66" stroke-width="0.3"><path d="
M 358.00 258.00 
C 358.00 258.00 357.75 258.74 358.00 259.00
C 361.67 259.00 365.33 259.00 369.00 259.00
C 369.00 253.00 369.00 247.00 369.00 241.00
C 366.68 245.67 368.65 252.50 368.00 258.00
C 364.69 258.23 361.31 257.70 358.00 258.00 Z"/>
</g>
<g fill="None" fill-opacity="0.0" stroke="#DEDBE2" stroke-opacity="0.65" stroke-width="0.3"><path d="
M 220.00 243.00 
C 221.90 241.20 229.49 243.93 231.00 244.00
C 233.52 243.83 242.96 244.38 244.00 243.00
C 241.79 241.48 234.75 241.60 232.00 242.00 C 229.25 242.40 221.01 240.44 220.00 243.00 Z"/>
</g>
<g fill="None" fill-opacity="0.0" stroke="#8E7990" stroke-opacity="0.05" stroke-width="0.3"><path d="
M 221.00 245.00 
C 222.24 245.24 228.75 244.15 231.00 244.00
C 229.49 243.93 221.90 241.20 220.00 243.00
C 219.55 244.13 220.72 244.44 221.00 245.00 Z"/>
</g>
<g fill="None" fill-opacity="0.0" stroke="#A39EAA" stroke-opacity="0.57" stroke-width="0.3"><path d="
M 235.00 248.00 
C 237.70 247.28 241.62 247.93 244.00 249.00
C 243.03 245.41 237.45 246.95 235.00 248.00 Z"/>
</g>
<g fill="None" fill-opacity="0.0" stroke="#7C7682" stroke-opacity="0.41" stroke-width="0.3"><path d="
M 268.00 257.00 
C 265.83 258.91 258.24 258.73 256.00 257.00
C 258.65 259.95 265.36 260.24 268.00 257.00 Z"/>
</g>
<g fill="None" fill-opacity="0.0" stroke="#191A5F" stroke-opacity="0.04" stroke-width="0.3"><path d="
M 319.00 259.00 
C 316.34 260.18 307.55 259.63 307.00 257.00
C 306.87 260.18 316.61 262.67 319.00 259.00 Z"/>
</g>
<g fill="None" fill-opacity="0.0" stroke="#796DCD" stroke-opacity="0.61" stroke-width="0.3"><path d="
M 319.00 259.00 
C 319.23 258.65 318.87 257.46 319.00 257.00
C 316.59 256.72 309.11 260.33 307.00 257.00
C 307.55 259.63 316.34 260.18 319.00 259.00 Z"/>
</g>
<g fill="None" fill-opacity="0.0" stroke="#221C5A" stroke-opacity="0.07" stroke-width="0.3"><path d="
M 353.00 257.00 
C 353.00 257.00 353.25 257.74 353.00 258.00
C 351.20 259.86 343.79 259.65 342.00 258.00
C 341.74 257.76 341.16 257.27 341.00 257.00
C 341.95 262.64 349.97 258.94 354.00 260.00
C 354.22 258.60 353.84 257.82 353.00 257.00 Z"/>
</g>
<g fill="None" fill-opacity="0.0" stroke="#7469C9" stroke-opacity="0.57" stroke-width="0.3"><path d="
M 380.00 258.00 
C 381.67 259.35 388.01 259.88 390.00 259.00
C 390.23 258.65 389.78 257.38 390.00 257.00
C 386.68 256.61 383.75 258.90 380.00 257.00
C 380.00 257.00 379.86 257.54 380.00 258.00 Z"/>
</g>
<g fill="None" fill-opacity="0.0" stroke="#7C71D4" stroke-opacity="0.62" stroke-width="0.3"><path d="
M 353.00 258.00 
C 349.84 258.28 345.09 258.69 342.00 258.00
C 343.79 259.65 351.20 259.86 353.00 258.00 Z"/>
</g>
<g fill="None" fill-opacity="0.0" stroke="#1A1D5E" stroke-opacity="0.04" stroke-width="0.3"><path d="
M 390.00 259.00 
C 388.01 259.88 381.67 259.35 380.00 258.00
C 380.85 260.84 388.67 261.04 390.00 259.00 Z"/>
</g>
<g fill="None" fill-opacity="0.0" stroke="#231B5E" stroke-opacity="0.04" stroke-width="0.3"><path d="
M 413.00 259.00 
C 409.00 259.00 405.00 259.00 401.00 259.00
C 402.25 260.79 411.71 260.84 413.00 259.00 Z"/>
</g>
<g fill="None" fill-opacity="0.0" stroke="#6C6775" stroke-opacity="0.28" stroke-width="0.3"><path d="
M 101.00 289.00 
C 102.63 287.37 100.79 274.95 104.00 276.00
C 103.73 274.53 102.00 275.11 101.00 275.00
C 99.40 278.63 103.13 285.71 101.00 289.00 Z"/>
</g>
<g fill="None" fill-opacity="0.0" stroke="#ECE9F0" stroke-opacity="0.88" stroke-width="0.3"><path d="
M 208.00 293.00 
C 208.56 290.12 206.82 286.07 209.00 284.00
C 210.36 282.71 211.62 282.69 213.00 284.00
C 215.39 286.26 212.78 290.24 214.00 293.00
C 214.35 293.23 215.65 293.23 216.00 293.00
C 216.63 291.57 216.71 283.37 216.00 282.00
C 214.36 279.82 211.97 280.90 210.00 280.00
C 208.89 279.49 206.83 279.22 208.00 275.00
C 204.74 274.05 205.01 293.98 208.00 293.00 Z"/>
</g>
<g fill="None" fill-opacity="0.0" stroke="#544F59" stroke-opacity="0.25" stroke-width="0.3"><path d="
M 210.00 280.00 
C 208.78 278.85 209.59 275.46 208.00 275.00
C 206.83 279.22 208.89 279.49 210.00 280.00 Z"/>
</g>
<g fill="None" fill-opacity="0.0" stroke="#DBD7DF" stroke-opacity="0.76" stroke-width="0.3"><path d="
M 267.00 281.00 
C 264.13 271.08 250.33 275.68 251.01 284.99 C 251.69 294.30 264.17 296.57 267.00 288.00
C 261.77 290.68 253.92 291.25 255.01 283.01 C 256.10 274.76 262.34 279.98 267.00 281.00 Z"/>
</g>
<g fill="None" fill-opacity="0.0" stroke="#E6E3EA" stroke-opacity="0.82" stroke-width="0.3"><path d="
M 283.00 284.00 
C 282.71 285.21 282.74 287.79 283.00 289.00
C 284.57 293.93 289.80 293.95 294.00 293.00
C 294.00 287.00 294.00 281.00 294.00 275.00
C 290.84 275.00 292.82 281.11 289.01 280.01 C 285.19 278.91 284.95 282.18 283.00 284.00
M 291.00 283.00 
C 294.04 284.92 291.77 292.55 287.77 290.21 C 283.77 287.88 286.91 280.42 291.00 283.00 Z"/>
</g>
<g fill="None" fill-opacity="0.0" stroke="#E4E1E7" stroke-opacity="0.82" stroke-width="0.3"><path d="
M 316.00 282.00 
C 316.00 282.47 318.34 284.37 317.99 286.01 C 317.65 287.65 317.37 291.59 318.00 293.00
C 318.35 293.23 319.65 293.23 320.00 293.00
C 321.29 290.09 319.70 285.82 321.00 283.00
C 322.68 283.29 324.32 281.69 324.00 280.00
C 318.27 280.27 323.61 277.00 324.00 275.00
C 319.94 273.84 316.34 279.14 316.00 282.00 Z"/>
</g>
<g fill="None" fill-opacity="0.0" stroke="#DEDAE3" stroke-opacity="0.75" stroke-width="0.3"><path d="
M 101.00 289.00 
C 98.54 292.42 96.74 287.02 94.00 288.00
C 98.42 303.45 111.25 283.25 104.00 276.00
C 100.79 274.95 102.63 287.37 101.00 289.00 Z"/>
</g>
<g fill="None" fill-opacity="0.0" stroke="#EAE7ED" stroke-opacity="0.82" stroke-width="0.3"><path d="
M 147.00 283.00 
C 147.35 284.50 147.43 291.96 149.00 293.00
C 150.33 293.00 151.67 293.00 153.00 293.00
C 154.72 291.28 150.97 289.86 151.00 290.00
C 150.55 288.18 149.28 285.48 150.00 283.00
C 151.22 282.07 153.43 282.17 153.00 280.00
C 150.11 280.91 150.26 278.24 149.00 277.00
C 145.93 280.86 146.20 279.60 147.00 283.00 Z"/>
</g>
<g fill="None" fill-opacity="0.0" stroke="#E3E0E6" stroke-opacity="0.80" stroke-width="0.3"><path d="
M 201.00 290.00 
C 199.82 287.43 198.65 281.04 204.00 282.00
C 202.87 279.54 199.69 278.87 198.00 277.00
C 196.43 281.40 195.51 293.62 204.00 293.00
C 205.49 290.77 201.17 290.38 201.00 290.00 Z"/>
</g>
<g fill="None" fill-opacity="0.0" stroke="#E1DFE5" stroke-opacity="0.79" stroke-width="0.3"><path d="
M 118.00 293.00 
C 121.75 284.68 112.23 273.84 107.00 284.00
C 109.41 285.83 111.00 281.56 114.00 283.00
C 113.31 286.46 104.95 285.42 107.08 290.92 C 109.22 296.42 114.05 292.07 118.00 293.00
M 115.00 287.00 
C 115.09 289.47 112.42 291.54 110.00 291.00
C 109.01 287.73 112.86 287.61 115.00 287.00 Z"/>
</g>
<g fill="None" fill-opacity="0.0" stroke="#DFDCE2" stroke-opacity="0.76" stroke-width="0.3"><path d="
M 127.00 284.00 
C 129.09 286.09 127.49 290.15 128.00 293.00
C 129.00 293.00 130.00 293.00 131.00 293.00
C 131.44 289.53 129.13 282.13 135.00 283.00
C 135.86 286.15 132.70 293.67 138.00 293.00
C 142.33 278.32 129.16 279.86 120.00 280.00
C 119.85 284.56 118.68 289.10 121.00 293.00
C 124.56 293.84 121.60 278.60 127.00 284.00 Z"/>
</g>
<g fill="None" fill-opacity="0.0" stroke="#6D6A71" stroke-opacity="0.32" stroke-width="0.3"><path d="
M 151.00 290.00 
C 151.00 287.67 151.00 285.33 151.00 283.00
C 154.19 283.37 154.02 281.92 153.00 280.00
C 153.43 282.17 151.22 282.07 150.00 283.00
C 149.28 285.48 150.55 288.18 151.00 290.00 Z"/>
</g>
<g fill="None" fill-opacity="0.0" stroke="#DBD8E0" stroke-opacity="0.77" stroke-width="0.3"><path d="
M 167.00 289.00 
C 166.51 288.09 167.16 286.04 167.00 285.00
C 165.72 276.68 155.05 279.75 155.00 287.00 C 154.96 294.24 165.34 296.14 167.00 289.00
M 163.00 283.00 
C 165.83 284.74 163.55 292.39 159.77 290.21 C 155.99 288.03 158.70 280.35 163.00 283.00 Z"/>
</g>
<g fill="None" fill-opacity="0.0" stroke="#E3E0E7" stroke-opacity="0.78" stroke-width="0.3"><path d="
M 169.00 284.00 
C 168.77 284.89 169.65 289.57 169.00 290.00
C 170.98 293.14 174.95 295.00 178.00 292.00
C 179.03 298.72 171.27 294.03 169.00 296.00
C 180.88 304.43 182.82 288.75 181.00 280.00
C 175.45 279.58 173.03 280.24 169.00 284.00
M 177.00 283.00 
C 180.46 285.13 176.76 292.45 172.92 290.06 C 169.08 287.68 173.13 280.62 177.00 283.00 Z"/>
</g>
<g fill="None" fill-opacity="0.0" stroke="#D9D6DC" stroke-opacity="0.74" stroke-width="0.3"><path d="
M 195.00 288.00 
C 197.02 278.94 184.09 277.51 182.34 285.32 C 180.58 293.13 191.51 296.33 195.00 290.00
C 191.72 288.31 189.29 292.12 186.00 290.00
C 186.43 286.04 192.24 288.84 195.00 288.00
M 192.00 284.00 
C 186.13 288.00 185.38 280.51 192.00 284.00 Z"/>
</g>
<g fill="None" fill-opacity="0.0" stroke="#D6D3D9" stroke-opacity="0.73" stroke-width="0.3"><path d="
M 230.00 288.00 
C 233.21 278.84 219.78 277.34 218.00 285.00 C 216.22 292.66 227.51 297.15 230.00 290.00
C 226.97 288.16 223.12 293.20 221.00 288.00
C 224.00 288.00 227.00 288.00 230.00 288.00
M 227.00 284.00 
C 221.97 287.78 221.15 280.42 227.00 284.00 Z"/>
</g>
<g fill="None" fill-opacity="0.0" stroke="#CDC9D0" stroke-opacity="0.70" stroke-width="0.3"><path d="
M 239.00 280.00 
C 236.27 280.46 234.67 280.49 232.00 280.00
C 233.16 284.18 228.89 294.15 236.00 293.00
C 234.75 287.63 237.28 283.80 239.00 280.00 Z"/>
</g>
<g fill="None" fill-opacity="0.0" stroke="#DCD9E1" stroke-opacity="0.77" stroke-width="0.3"><path d="
M 281.00 288.00 
C 281.09 287.12 281.13 285.88 281.00 285.00
C 279.73 276.26 266.84 280.41 268.23 287.77 C 269.62 295.13 280.28 295.27 281.00 288.00
M 277.00 283.00 
C 280.16 284.99 277.83 292.13 273.77 290.21 C 269.71 288.30 272.82 280.36 277.00 283.00 Z"/>
</g>
<g fill="None" fill-opacity="0.0" stroke="#DEDCE3" stroke-opacity="0.77" stroke-width="0.3"><path d="
M 309.00 288.00 
C 310.77 279.45 298.80 277.11 297.00 285.00 C 295.20 292.89 305.22 296.63 308.00 290.00
C 305.32 288.43 302.90 292.23 300.00 290.00
C 300.43 286.04 306.24 288.84 309.00 288.00
M 306.00 284.00 
C 299.89 287.94 299.07 280.22 306.00 284.00 Z"/>
</g>
<g fill="None" fill-opacity="0.0" stroke="#D6D5DA" stroke-opacity="0.75" stroke-width="0.3"><path d="
M 333.00 280.00 
C 324.04 276.64 320.78 290.44 328.78 293.22 C 336.78 296.00 339.86 282.57 333.00 280.00
M 333.00 283.00 
C 334.16 286.06 331.86 293.07 328.25 289.74 C 324.65 286.41 328.85 281.34 333.00 283.00 Z"/>
</g>
<g fill="None" fill-opacity="0.0" stroke="#65626D" stroke-opacity="0.28" stroke-width="0.3"><path d="
M 339.00 293.00 
C 339.00 288.67 339.00 284.33 339.00 280.00
C 337.66 281.19 336.79 292.28 339.00 293.00 Z"/>
</g>
<g fill="None" fill-opacity="0.0" stroke="#E7E5ED" stroke-opacity="0.82" stroke-width="0.3"><path d="
M 339.00 293.00 
C 341.72 290.24 342.05 283.36 345.00 280.00
C 343.82 281.36 339.70 279.38 339.00 280.00
C 339.00 284.33 339.00 288.67 339.00 293.00 Z"/>
</g>
<g fill="None" fill-opacity="0.0" stroke="#D7D5DB" stroke-opacity="0.76" stroke-width="0.3"><path d="
M 358.00 288.00 
C 360.36 279.43 347.45 277.08 346.00 285.00 C 344.55 292.92 354.14 296.47 358.00 290.00
C 354.69 288.15 351.80 292.83 349.00 289.00
C 351.02 286.78 355.16 288.59 358.00 288.00
M 355.00 284.00 
C 349.13 288.00 348.38 280.51 355.00 284.00 Z"/>
</g>
<g fill="None" fill-opacity="0.0" stroke="#D8D6DD" stroke-opacity="0.76" stroke-width="0.3"><path d="
M 365.00 289.00 
C 363.25 285.77 364.47 278.63 359.00 280.00
C 361.15 282.93 360.32 292.74 364.97 292.97 C 369.63 293.21 370.19 283.13 371.00 280.00
C 366.20 279.51 368.03 286.81 365.00 289.00 Z"/>
</g>
<g fill="None" fill-opacity="0.0" stroke="#DAD9DF" stroke-opacity="0.78" stroke-width="0.3"><path d="
M 384.00 288.00 
C 386.46 278.23 373.24 278.62 371.80 285.75 C 370.37 292.89 381.07 296.80 384.00 290.00
C 381.35 287.25 377.82 293.96 376.00 289.00
C 377.70 286.81 381.48 288.56 384.00 288.00
M 381.00 284.00 
C 384.21 287.01 372.75 287.06 376.00 284.00
C 377.49 282.60 379.53 282.62 381.00 284.00 Z"/>
</g>
<g fill="None" fill-opacity="0.0" stroke="#E2DFE6" stroke-opacity="0.76" stroke-width="0.3"><path d="
M 389.00 293.00 
C 388.61 290.09 389.07 287.22 390.00 285.00
C 389.57 282.83 391.78 282.93 393.00 282.00
C 393.04 278.38 388.22 280.61 386.00 280.00
C 386.00 284.33 386.00 288.67 386.00 293.00
C 386.85 292.69 388.19 293.39 389.00 293.00 Z"/>
</g>
<g fill="None" fill-opacity="0.0" stroke="#78757C" stroke-opacity="0.39" stroke-width="0.3"><path d="
M 201.00 290.00 
C 201.00 287.67 201.00 285.33 201.00 283.00
C 201.95 282.78 203.74 283.39 204.00 282.00
C 198.65 281.04 199.82 287.43 201.00 290.00 Z"/>
</g>
<g fill="None" fill-opacity="0.0" stroke="#282531" stroke-opacity="0.11" stroke-width="0.3"><path d="
M 216.00 293.00 
C 218.20 291.57 217.29 283.72 216.00 282.00
C 216.71 283.37 216.63 291.57 216.00 293.00 Z"/>
</g>
<g fill="None" fill-opacity="0.0" stroke="#514D57" stroke-opacity="0.27" stroke-width="0.3"><path d="
M 318.00 293.00 
C 317.37 291.59 317.65 287.65 317.99 286.01 C 318.34 284.37 316.00 282.47 316.00 282.00
C 315.83 283.43 316.90 292.29 318.00 293.00 Z"/>
</g>
<g fill="None" fill-opacity="0.0" stroke="#443E49" stroke-opacity="0.18" stroke-width="0.3"><path d="
M 149.00 293.00 
C 147.43 291.96 147.35 284.50 147.00 283.00
C 147.24 285.89 145.54 291.71 149.00 293.00 Z"/>
</g>
<g fill="None" fill-opacity="0.0" stroke="#000000" stroke-opacity="0.01" stroke-width="0.3"><path d="
M 163.00 283.00 
C 158.70 280.35 155.99 288.03 159.77 290.21 C 163.55 292.39 165.83 284.74 163.00 283.00 Z"/>
</g>
<g fill="None" fill-opacity="0.0" stroke="#010102" stroke-opacity="0.02" stroke-width="0.3"><path d="
M 177.00 283.00 
C 173.13 280.62 169.08 287.68 172.92 290.06 C 176.76 292.45 180.46 285.13 177.00 283.00 Z"/>
</g>
<g fill="None" fill-opacity="0.0" stroke="#050404" stroke-opacity="0.04" stroke-width="0.3"><path d="
M 192.00 284.00 
C 185.38 280.51 186.13 288.00 192.00 284.00 Z"/>
</g>
<g fill="None" fill-opacity="0.0" stroke="#000000" stroke-opacity="0.00" stroke-width="0.3"><path d="
M 227.00 284.00 
C 221.15 280.42 221.97 287.78 227.00 284.00 Z"/>
</g>
<g fill="None" fill-opacity="0.0" stroke="#000000" stroke-opacity="0.02" stroke-width="0.3"><path d="
M 277.00 283.00 
C 272.82 280.36 269.71 288.30 273.77 290.21 C 277.83 292.13 280.16 284.99 277.00 283.00 Z"/>
</g>
<g fill="None" fill-opacity="0.0" stroke="#030304" stroke-opacity="0.02" stroke-width="0.3"><path d="
M 291.00 283.00 
C 286.91 280.42 283.77 287.88 287.77 290.21 C 291.77 292.55 294.04 284.92 291.00 283.00 Z"/>
</g>
<g fill="None" fill-opacity="0.0" stroke="#060608" stroke-opacity="0.04" stroke-width="0.3"><path d="
M 306.00 284.00 
C 299.07 280.22 299.89 287.94 306.00 284.00 Z"/>
</g>
<g fill="None" fill-opacity="0.0" stroke="#524E5D" stroke-opacity="0.31" stroke-width="0.3"><path d="
M 320.00 293.00 
C 322.56 291.34 320.26 285.68 321.00 283.00
C 319.70 285.82 321.29 290.09 320.00 293.00 Z"/>
</g>
<g fill="None" fill-opacity="0.0" stroke="#000000" stroke-opacity="0.02" stroke-width="0.3"><path d="
M 333.00 283.00 
C 328.85 281.34 324.65 286.41 328.25 289.74 C 331.86 293.07 334.16 286.06 333.00 283.00 Z"/>
</g>
<g fill="None" fill-opacity="0.0" stroke="#020202" stroke-opacity="0.02" stroke-width="0.3"><path d="
M 355.00 284.00 
C 348.38 280.51 349.13 288.00 355.00 284.00 Z"/>
</g>
<g fill="None" fill-opacity="0.0" stroke="#020202" stroke-opacity="0.04" stroke-width="0.3"><path d="
M 376.00 284.00 
C 376.74 285.39 380.32 285.65 381.00 284.00
C 379.53 282.62 377.49 282.60 376.00 284.00 Z"/>
</g>
<g fill="None" fill-opacity="0.0" stroke="#5C5865" stroke-opacity="0.20" stroke-width="0.3"><path d="
M 128.00 293.00 
C 127.49 290.15 129.09 286.09 127.00 284.00
C 128.31 286.10 125.23 291.65 128.00 293.00 Z"/>
</g>
<g fill="None" fill-opacity="0.0" stroke="#58575A" stroke-opacity="0.16" stroke-width="0.3"><path d="
M 167.00 285.00 
C 167.16 286.04 166.51 288.09 167.00 289.00
C 167.09 289.16 168.74 289.79 169.00 290.00
C 169.65 289.57 168.77 284.89 169.00 284.00
C 168.64 284.34 167.28 284.48 167.00 285.00 Z"/>
</g>
<g fill="None" fill-opacity="0.0" stroke="#58515E" stroke-opacity="0.30" stroke-width="0.3"><path d="
M 208.00 293.00 
C 210.89 292.06 207.67 285.85 209.00 284.00
C 206.82 286.07 208.56 290.12 208.00 293.00 Z"/>
</g>
<g fill="None" fill-opacity="0.0" stroke="#74707A" stroke-opacity="0.42" stroke-width="0.3"><path d="
M 214.00 293.00 
C 212.78 290.24 215.39 286.26 213.00 284.00
C 214.59 286.22 211.23 291.20 214.00 293.00 Z"/>
</g>
<g fill="None" fill-opacity="0.0" stroke="#59595D" stroke-opacity="0.19" stroke-width="0.3"><path d="
M 281.00 285.00 
C 281.13 285.88 281.09 287.12 281.00 288.00
C 281.09 288.20 282.75 288.72 283.00 289.00
C 282.74 287.79 282.71 285.21 283.00 284.00
C 282.66 284.31 281.24 284.49 281.00 285.00 Z"/>
</g>
<g fill="None" fill-opacity="0.0" stroke="#C1C1C4" stroke-opacity="0.48" stroke-width="0.3"><path d="
M 381.00 284.00 
C 380.32 285.65 376.74 285.39 376.00 284.00
C 372.75 287.06 384.21 287.01 381.00 284.00 Z"/>
</g>
<g fill="None" fill-opacity="0.0" stroke="#5C5760" stroke-opacity="0.32" stroke-width="0.3"><path d="
M 389.00 293.00 
C 391.31 291.88 389.45 287.11 390.00 285.00
C 389.07 287.22 388.61 290.09 389.00 293.00 Z"/>
</g>
<g fill="None" fill-opacity="0.0" stroke="#151516" stroke-opacity="0.06" stroke-width="0.3"><path d="
M 115.00 287.00 
C 112.86 287.61 109.01 287.73 110.00 291.00
C 112.42 291.54 115.09 289.47 115.00 287.00 Z"/>
</g>
<g fill="None" fill-opacity="0.0" stroke="#DEDAE5" stroke-opacity="0.80" stroke-width="0.3"><path d="
M 240.00 293.00 
C 247.59 293.87 239.45 286.25 240.00 293.00 Z"/>
</g>
<g fill="None" fill-opacity="0.0" stroke="#D4CEDB" stroke-opacity="0.80" stroke-width="0.3"><path d="
M 397.00 290.00 
C 388.95 288.39 397.43 297.06 397.00 290.00 Z"/>
</g>
<g fill="#000000" fill-opacity="0.00" stroke="None">
<path d="
M 0.00 500.00 
L 500.00 500.00
L 500.00 0.00
L 0.00 0.00
L 0.00 500.00
M 304.00 208.00 
C 307.76 211.76 304.16 222.41 305.00 228.00 C 305.84 233.59 305.37 243.96 304.00 249.00
C 302.59 254.20 296.22 260.82 290.78 260.78 C 285.33 260.73 274.26 258.32 276.33 251.33 C 278.41 244.34 289.08 251.65 292.00 246.00
C 293.81 240.64 290.40 232.32 292.00 227.00 C 293.60 221.68 289.13 211.87 293.00 208.00
C 294.78 206.22 302.26 206.26 304.00 208.00
M 353.00 257.00 
C 353.84 257.82 354.22 258.60 354.00 260.00
C 349.97 258.94 341.95 262.64 341.00 257.00
C 337.42 250.95 338.79 248.11 330.00 249.00 C 321.21 249.89 321.22 249.26 319.00 257.00
C 318.87 257.46 319.23 258.65 319.00 259.00
C 316.61 262.67 306.87 260.18 307.00 257.00
C 307.67 240.35 320.15 224.39 322.00 208.00
C 327.67 208.00 333.33 208.00 339.00 208.00
C 342.38 224.52 349.56 240.10 353.00 257.00
M 395.00 210.00 
C 396.51 208.25 408.75 205.73 412.00 208.00
C 414.61 209.83 412.61 215.63 413.00 219.00 C 413.39 222.37 413.00 228.39 413.00 232.00
C 413.00 235.78 413.84 241.41 413.00 245.00 C 412.16 248.59 415.02 256.11 413.00 259.00
C 411.71 260.84 402.25 260.79 401.00 259.00
C 398.35 255.21 402.59 246.53 401.00 242.00 C 399.41 237.47 403.01 229.87 400.00 226.00
C 396.86 236.32 393.85 247.01 390.00 257.00
C 389.78 257.38 390.23 258.65 390.00 259.00
C 388.67 261.04 380.85 260.84 380.00 258.00
C 379.86 257.54 380.00 257.00 380.00 257.00
C 376.91 247.35 374.53 237.37 371.00 228.00
C 371.47 234.33 367.38 242.92 370.00 250.00 C 372.62 257.08 364.12 265.32 358.00 259.00
C 357.75 258.74 358.00 258.00 358.00 258.00
C 358.00 241.33 358.00 224.67 358.00 208.00
C 363.67 208.00 369.33 208.00 375.00 208.00
C 378.30 218.61 381.28 229.37 385.00 240.00
C 389.57 230.83 391.08 219.76 395.00 210.00
M 126.00 259.00 
C 124.13 261.63 121.84 261.58 120.00 259.00
C 116.55 254.16 119.38 238.88 119.00 233.00 C 118.62 227.12 116.39 209.09 123.01 209.01 C 129.63 208.92 127.50 226.08 127.00 232.00 C 126.50 237.92 129.50 254.09 126.00 259.00
M 168.00 259.00 
C 168.00 242.33 168.00 225.67 168.00 209.00
C 187.10 206.11 207.12 211.50 208.00 233.00 C 208.88 254.50 186.58 262.45 168.00 259.00
M 103.00 218.00 
C 109.90 222.63 95.92 231.07 93.00 235.00
C 93.81 241.78 106.21 241.26 104.97 249.03 C 103.74 256.79 95.36 248.06 91.25 243.75 C 87.14 239.44 81.37 232.78 90.00 228.00
C 92.63 224.92 99.25 215.48 103.00 218.00
M 137.00 248.00 
C 141.97 245.17 144.40 238.93 149.00 237.00
C 147.05 230.41 144.39 230.46 139.25 224.75 C 134.11 219.04 143.59 216.00 146.75 222.25 C 149.91 228.49 155.08 227.34 157.75 233.25 C 160.42 239.16 151.28 242.48 148.75 246.75 C 146.23 251.03 138.24 256.36 137.00 248.00
M 244.00 243.00 
C 242.96 244.38 233.52 243.83 231.00 244.00
C 228.75 244.15 222.24 245.24 221.00 245.00
C 224.82 252.71 228.24 250.88 235.00 248.00
C 237.45 246.95 243.03 245.41 244.00 249.00
C 245.05 252.87 235.25 258.93 230.99 258.99 C 226.74 259.05 217.41 258.38 214.25 252.75 C 211.08 247.12 209.55 240.69 211.32 234.32 C 213.10 227.96 216.20 224.50 222.08 222.08 C 227.95 219.65 235.45 221.89 239.25 225.75 C 243.04 229.62 246.84 239.22 244.00 243.00
M 254.00 223.00 
C 259.33 227.64 256.93 241.10 262.00 246.00
C 265.37 238.90 267.02 230.55 270.00 223.00
C 272.32 221.09 278.68 221.54 281.00 223.00
C 273.64 232.29 275.26 248.07 268.00 257.00
C 265.36 260.24 258.65 259.95 256.00 257.00
C 253.15 253.83 251.70 245.50 250.07 240.93 C 248.45 236.35 242.86 228.73 243.00 224.00
C 243.08 221.29 251.50 220.82 254.00 223.00
M 112.00 225.00 
C 118.99 225.85 115.10 247.52 109.33 244.67 C 103.56 241.81 107.22 224.42 112.00 225.00
M 137.00 227.00 
C 140.23 229.18 140.07 240.20 138.00 243.00
C 137.22 244.06 134.57 245.76 133.00 245.00
C 131.78 246.07 129.10 239.96 130.00 238.00 C 130.91 236.04 129.48 231.07 131.00 229.00
C 131.22 228.70 131.82 228.27 132.00 228.00
C 133.39 225.94 134.82 225.53 137.00 227.00
M 104.00 276.00 
C 111.25 283.25 98.42 303.45 94.00 288.00
C 96.74 287.02 98.54 292.42 101.00 289.00
C 103.13 285.71 99.40 278.63 101.00 275.00
C 102.00 275.11 103.73 274.53 104.00 276.00
M 210.00 280.00 
C 211.97 280.90 214.36 279.82 216.00 282.00
C 217.29 283.72 218.20 291.57 216.00 293.00
C 215.65 293.23 214.35 293.23 214.00 293.00
C 211.23 291.20 214.59 286.22 213.00 284.00
C 211.62 282.69 210.36 282.71 209.00 284.00
C 207.67 285.85 210.89 292.06 208.00 293.00
C 205.01 293.98 204.74 274.05 208.00 275.00
C 209.59 275.46 208.78 278.85 210.00 280.00
M 267.00 281.00 
C 262.34 279.98 256.10 274.76 255.01 283.01 C 253.92 291.25 261.77 290.68 267.00 288.00
C 264.17 296.57 251.69 294.30 251.01 284.99 C 250.33 275.68 264.13 271.08 267.00 281.00
M 283.00 289.00 
C 282.75 288.72 281.09 288.20 281.00 288.00
C 280.28 295.27 269.62 295.13 268.23 287.77 C 266.84 280.41 279.73 276.26 281.00 285.00
C 281.24 284.49 282.66 284.31 283.00 284.00
C 284.95 282.18 285.19 278.91 289.01 280.01 C 292.82 281.11 290.84 275.00 294.00 275.00
C 294.00 281.00 294.00 287.00 294.00 293.00
C 289.80 293.95 284.57 293.93 283.00 289.00
M 321.00 283.00 
C 320.26 285.68 322.56 291.34 320.00 293.00
C 319.65 293.23 318.35 293.23 318.00 293.00
C 316.90 292.29 315.83 283.43 316.00 282.00
C 316.34 279.14 319.94 273.84 324.00 275.00
C 323.61 277.00 318.27 280.27 324.00 280.00
C 324.32 281.69 322.68 283.29 321.00 283.00
M 153.00 280.00 
C 154.02 281.92 154.19 283.37 151.00 283.00
C 151.00 285.33 151.00 287.67 151.00 290.00
C 150.97 289.86 154.72 291.28 153.00 293.00
C 151.67 293.00 150.33 293.00 149.00 293.00
C 145.54 291.71 147.24 285.89 147.00 283.00
C 146.20 279.60 145.93 280.86 149.00 277.00
C 150.26 278.24 150.11 280.91 153.00 280.00
M 204.00 282.00 
C 203.74 283.39 201.95 282.78 201.00 283.00
C 201.00 285.33 201.00 287.67 201.00 290.00
C 201.17 290.38 205.49 290.77 204.00 293.00
C 195.51 293.62 196.43 281.40 198.00 277.00
C 199.69 278.87 202.87 279.54 204.00 282.00
M 118.00 293.00 
C 114.05 292.07 109.22 296.42 107.08 290.92 C 104.95 285.42 113.31 286.46 114.00 283.00
C 111.00 281.56 109.41 285.83 107.00 284.00
C 112.23 273.84 121.75 284.68 118.00 293.00
M 128.00 293.00 
C 125.23 291.65 128.31 286.10 127.00 284.00
C 121.60 278.60 124.56 293.84 121.00 293.00
C 118.68 289.10 119.85 284.56 120.00 280.00
C 129.16 279.86 142.33 278.32 138.00 293.00
C 132.70 293.67 135.86 286.15 135.00 283.00
C 129.13 282.13 131.44 289.53 131.00 293.00
C 130.00 293.00 129.00 293.00 128.00 293.00
M 167.00 285.00 
C 167.28 284.48 168.64 284.34 169.00 284.00
C 173.03 280.24 175.45 279.58 181.00 280.00
C 182.82 288.75 180.88 304.43 169.00 296.00
C 171.27 294.03 179.03 298.72 178.00 292.00
C 174.95 295.00 170.98 293.14 169.00 290.00
C 168.74 289.79 167.09 289.16 167.00 289.00
C 165.34 296.14 154.96 294.24 155.00 287.00 C 155.05 279.75 165.72 276.68 167.00 285.00
M 195.00 288.00 
C 192.24 288.84 186.43 286.04 186.00 290.00
C 189.29 292.12 191.72 288.31 195.00 290.00
C 191.51 296.33 180.58 293.13 182.34 285.32 C 184.09 277.51 197.02 278.94 195.00 288.00
M 230.00 288.00 
C 227.00 288.00 224.00 288.00 221.00 288.00
C 223.12 293.20 226.97 288.16 230.00 290.00
C 227.51 297.15 216.22 292.66 218.00 285.00 C 219.78 277.34 233.21 278.84 230.00 288.00
M 239.00 280.00 
C 237.28 283.80 234.75 287.63 236.00 293.00
C 228.89 294.15 233.16 284.18 232.00 280.00
C 234.67 280.49 236.27 280.46 239.00 280.00
M 309.00 288.00 
C 306.24 288.84 300.43 286.04 300.00 290.00
C 302.90 292.23 305.32 288.43 308.00 290.00
C 305.22 296.63 295.20 292.89 297.00 285.00 C 298.80 277.11 310.77 279.45 309.00 288.00
M 333.00 280.00 
C 339.86 282.57 336.78 296.00 328.78 293.22 C 320.78 290.44 324.04 276.64 333.00 280.00
M 339.00 293.00 
C 336.79 292.28 337.66 281.19 339.00 280.00
C 339.70 279.38 343.82 281.36 345.00 280.00
C 342.05 283.36 341.72 290.24 339.00 293.00
M 358.00 288.00 
C 355.16 288.59 351.02 286.78 349.00 289.00
C 351.80 292.83 354.69 288.15 358.00 290.00
C 354.14 296.47 344.55 292.92 346.00 285.00 C 347.45 277.08 360.36 279.43 358.00 288.00
M 365.00 289.00 
C 368.03 286.81 366.20 279.51 371.00 280.00
C 370.19 283.13 369.63 293.21 364.97 292.97 C 360.32 292.74 361.15 282.93 359.00 280.00
C 364.47 278.63 363.25 285.77 365.00 289.00
M 384.00 288.00 
C 381.48 288.56 377.70 286.81 376.00 289.00
C 377.82 293.96 381.35 287.25 384.00 290.00
C 381.07 296.80 370.37 292.89 371.80 285.75 C 373.24 278.62 386.46 278.23 384.00 288.00
M 390.00 285.00 
C 389.45 287.11 391.31 291.88 389.00 293.00
C 388.19 293.39 386.85 292.69 386.00 293.00
C 386.00 288.67 386.00 284.33 386.00 280.00
C 388.22 280.61 393.04 278.38 393.00 282.00
C 391.78 282.93 389.57 282.83 390.00 285.00
M 240.00 293.00 
C 239.45 286.25 247.59 293.87 240.00 293.00
M 397.00 290.00 
C 397.43 297.06 388.95 288.39 397.00 290.00 Z"/>
</g>
<g fill="#2B205E" fill-opacity="0.16" stroke="None">
<path d="
M 293.00 208.00 
C 296.67 208.00 300.33 208.00 304.00 208.00
C 302.26 206.26 294.78 206.22 293.00 208.00 Z"/>
</g>
<g fill="#000048" fill-opacity="0.03" stroke="None">
<path d="
M 292.00 246.00 
C 297.29 235.77 290.12 219.36 293.00 208.00
C 289.13 211.87 293.60 221.68 292.00 227.00 C 290.40 232.32 293.81 240.64 292.00 246.00 Z"/>
</g>
<g fill="#6D61F0" fill-opacity="0.96" stroke="None">
<path d="
M 292.00 246.00 
C 289.08 251.65 278.41 244.34 276.33 251.33 C 274.26 258.32 285.33 260.73 290.78 260.78 C 296.22 260.82 302.59 254.20 304.00 249.00
C 305.91 235.61 302.56 221.46 304.00 208.00
C 300.33 208.00 296.67 208.00 293.00 208.00
C 290.12 219.36 297.29 235.77 292.00 246.00 Z"/>
</g>
<g fill="#010039" fill-opacity="0.03" stroke="None">
<path d="
M 304.00 249.00 
C 305.37 243.96 305.84 233.59 305.00 228.00 C 304.16 222.41 307.76 211.76 304.00 208.00
C 302.56 221.46 305.91 235.61 304.00 249.00 Z"/>
</g>
<g fill="#6C5FEE" fill-opacity="0.93" stroke="None">
<path d="
M 307.00 257.00 
C 309.11 260.33 316.59 256.72 319.00 257.00
C 321.22 249.26 321.21 249.89 330.00 249.00 C 338.79 248.11 337.42 250.95 341.00 257.00
C 341.16 257.27 341.74 257.76 342.00 258.00
C 345.09 258.69 349.84 258.28 353.00 258.00
C 353.25 257.74 353.00 257.00 353.00 257.00
C 349.56 240.10 342.38 224.52 339.00 208.00
C 333.33 208.00 327.67 208.00 322.00 208.00
C 320.15 224.39 307.67 240.35 307.00 257.00
M 331.00 224.00 
C 332.80 228.24 333.20 232.85 335.00 237.00
C 335.11 237.26 335.78 237.70 336.00 238.00
C 337.77 240.45 325.24 241.22 324.00 239.00
C 324.05 239.02 324.65 238.05 325.00 238.00
C 327.17 234.33 327.97 228.19 329.00 224.00
C 329.39 222.41 329.67 221.84 329.00 220.00
C 331.53 219.37 330.90 222.53 331.00 224.00 Z"/>
</g>
<g fill="#6D60F0" fill-opacity="0.94" stroke="None">
<path d="
M 358.00 258.00 
C 361.31 257.70 364.69 258.23 368.00 258.00
C 368.65 252.50 366.68 245.67 369.00 241.00
C 369.00 235.33 369.00 229.67 369.00 224.00
C 370.35 224.73 369.96 226.83 371.00 228.00
C 374.53 237.37 376.91 247.35 380.00 257.00
C 383.75 258.90 386.68 256.61 390.00 257.00
C 393.85 247.01 396.86 236.32 400.00 226.00
C 403.01 229.87 399.41 237.47 401.00 242.00 C 402.59 246.53 398.35 255.21 401.00 259.00
C 405.00 259.00 409.00 259.00 413.00 259.00
C 415.02 256.11 412.16 248.59 413.00 245.00 C 413.84 241.41 413.00 235.78 413.00 232.00
C 412.39 225.65 412.00 218.04 412.00 211.00
C 410.43 207.85 397.77 207.74 395.00 210.00
C 391.08 219.76 389.57 230.83 385.00 240.00
C 381.28 229.37 378.30 218.61 375.00 208.00
C 369.33 208.00 363.67 208.00 358.00 208.00
C 358.00 224.67 358.00 241.33 358.00 258.00 Z"/>
</g>
<g fill="#665BBE" fill-opacity="0.62" stroke="None">
<path d="
M 395.00 210.00 
C 397.77 207.74 410.43 207.85 412.00 211.00
C 412.00 210.00 412.00 209.00 412.00 208.00
C 408.75 205.73 396.51 208.25 395.00 210.00 Z"/>
</g>
<g fill="#100B3E" fill-opacity="0.09" stroke="None">
<path d="
M 412.00 211.00 
C 412.00 218.04 412.39 225.65 413.00 232.00
C 413.00 228.39 413.39 222.37 413.00 219.00 C 412.61 215.63 414.61 209.83 412.00 208.00
C 412.00 209.00 412.00 210.00 412.00 211.00 Z"/>
</g>
<g fill="#221A58" fill-opacity="0.21" stroke="None">
<path d="
M 120.00 259.00 
C 116.83 252.39 121.59 242.41 120.00 235.00 C 118.41 227.59 121.19 217.64 120.00 210.00
C 130.68 207.94 124.27 222.74 126.00 229.00
C 126.00 233.33 126.00 237.67 126.00 242.00
C 126.00 246.20 127.78 255.28 126.00 259.00
C 129.50 254.09 126.50 237.92 127.00 232.00 C 127.50 226.08 129.63 208.92 123.01 209.01 C 116.39 209.09 118.62 227.12 119.00 233.00 C 119.38 238.88 116.55 254.16 120.00 259.00 Z"/>
</g>
<g fill="#F6F5F7" fill-opacity="0.96" stroke="None">
<path d="
M 168.00 259.00 
C 186.58 262.45 208.88 254.50 208.00 233.00 C 207.12 211.50 187.10 206.11 168.00 209.00
C 168.00 225.67 168.00 242.33 168.00 259.00
M 179.00 249.00 
C 179.00 238.67 179.00 228.33 179.00 218.00
C 202.64 212.08 202.62 255.21 179.00 249.00 Z"/>
</g>
<g fill="#6F61F0" fill-opacity="0.97" stroke="None">
<path d="
M 120.00 259.00 
C 121.84 261.58 124.13 261.63 126.00 259.00
C 127.78 255.28 126.00 246.20 126.00 242.00
C 125.60 237.91 125.61 233.02 126.00 229.00
C 124.27 222.74 130.68 207.94 120.00 210.00
C 121.19 217.64 118.41 227.59 120.00 235.00 C 121.59 242.41 116.83 252.39 120.00 259.00 Z"/>
</g>
<g fill="#77747F" fill-opacity="0.15" stroke="None">
<path d="
M 90.00 228.00 
C 92.23 225.77 99.70 216.81 103.00 218.00
C 99.25 215.48 92.63 224.92 90.00 228.00 Z"/>
</g>
<g fill="#F1EFF2" fill-opacity="0.91" stroke="None">
<path d="
M 90.00 228.00 
C 81.37 232.78 87.14 239.44 91.25 243.75 C 95.36 248.06 103.74 256.79 104.97 249.03 C 106.21 241.26 93.81 241.78 93.00 235.00
C 95.92 231.07 109.90 222.63 103.00 218.00
C 99.70 216.81 92.23 225.77 90.00 228.00 Z"/>
</g>
<g fill="#EBEAED" fill-opacity="0.89" stroke="None">
<path d="
M 137.00 248.00 
C 138.24 256.36 146.23 251.03 148.75 246.75 C 151.28 242.48 160.42 239.16 157.75 233.25 C 155.08 227.34 149.91 228.49 146.75 222.25 C 143.59 216.00 134.11 219.04 139.25 224.75 C 144.39 230.46 147.05 230.41 149.00 237.00
C 144.40 238.93 141.97 245.17 137.00 248.00 Z"/>
</g>
<g fill="#000000" fill-opacity="0.01" stroke="None">
<path d="
M 179.00 249.00 
C 202.62 255.21 202.64 212.08 179.00 218.00
C 179.00 228.33 179.00 238.67 179.00 249.00 Z"/>
</g>
<g fill="#342C91" fill-opacity="0.22" stroke="None">
<path d="
M 329.00 224.00 
C 329.18 223.76 330.66 223.77 331.00 224.00
C 330.90 222.53 331.53 219.37 329.00 220.00
C 329.67 221.84 329.39 222.41 329.00 224.00 Z"/>
</g>
<g fill="#F0EFF1" fill-opacity="0.92" stroke="None">
<path d="
M 244.00 249.00 
C 241.62 247.93 237.70 247.28 235.00 248.00
C 228.24 250.88 224.82 252.71 221.00 245.00
C 220.72 244.44 219.55 244.13 220.00 243.00
C 221.01 240.44 229.25 242.40 232.00 242.00 C 234.75 241.60 241.79 241.48 244.00 243.00
C 246.84 239.22 243.04 229.62 239.25 225.75 C 235.45 221.89 227.95 219.65 222.08 222.08 C 216.20 224.50 213.10 227.96 211.32 234.32 C 209.55 240.69 211.08 247.12 214.25 252.75 C 217.41 258.38 226.74 259.05 230.99 258.99 C 235.25 258.93 245.05 252.87 244.00 249.00
M 234.00 236.00 
C 229.67 236.00 225.33 236.00 221.00 236.00
C 220.61 227.45 234.38 227.45 234.00 236.00 Z"/>
</g>
<g fill="#54515D" fill-opacity="0.29" stroke="None">
<path d="
M 243.00 224.00 
C 245.76 221.84 250.49 223.55 254.00 223.00
C 251.50 220.82 243.08 221.29 243.00 224.00 Z"/>
</g>
<g fill="#58525E" fill-opacity="0.31" stroke="None">
<path d="
M 270.00 223.00 
C 272.77 221.42 278.01 224.18 281.00 223.00
C 278.68 221.54 272.32 221.09 270.00 223.00 Z"/>
</g>
<g fill="#F2F1F3" fill-opacity="0.93" stroke="None">
<path d="
M 243.00 224.00 
C 242.86 228.73 248.45 236.35 250.07 240.93 C 251.70 245.50 253.15 253.83 256.00 257.00
C 258.24 258.73 265.83 258.91 268.00 257.00
C 275.26 248.07 273.64 232.29 281.00 223.00
C 278.01 224.18 272.77 221.42 270.00 223.00
C 267.02 230.55 265.37 238.90 262.00 246.00
C 256.93 241.10 259.33 227.64 254.00 223.00
C 250.49 223.55 245.76 221.84 243.00 224.00 Z"/>
</g>
<g fill="#000000" fill-opacity="0.01" stroke="None">
<path d="
M 325.00 238.00 
C 328.52 237.49 332.01 237.90 335.00 237.00
C 333.20 232.85 332.80 228.24 331.00 224.00
C 330.66 223.77 329.18 223.76 329.00 224.00
C 327.97 228.19 327.17 234.33 325.00 238.00 Z"/>
</g>
<g fill="#171054" fill-opacity="0.07" stroke="None">
<path d="
M 369.00 241.00 
C 369.00 247.00 369.00 253.00 369.00 259.00
C 365.33 259.00 361.67 259.00 358.00 259.00
C 364.12 265.32 372.62 257.08 370.00 250.00 C 367.38 242.92 371.47 234.33 371.00 228.00
C 369.96 226.83 370.35 224.73 369.00 224.00
C 369.00 229.67 369.00 235.33 369.00 241.00 Z"/>
</g>
<g fill="#685CD5" fill-opacity="0.81" stroke="None">
<path d="
M 112.00 225.00 
C 107.22 224.42 103.56 241.81 109.33 244.67 C 115.10 247.52 118.99 225.85 112.00 225.00 Z"/>
</g>
<g fill="#7063EC" fill-opacity="0.95" stroke="None">
<path d="
M 132.00 228.00 
C 133.45 232.52 131.01 238.34 132.00 243.00
C 132.11 243.19 132.94 244.97 133.00 245.00
C 134.57 245.76 137.22 244.06 138.00 243.00
C 139.15 240.75 138.76 228.76 137.00 227.00
C 134.82 225.53 133.39 225.94 132.00 228.00 Z"/>
</g>
<g fill="#010245" fill-opacity="0.03" stroke="None">
<path d="
M 138.00 243.00 
C 140.07 240.20 140.23 229.18 137.00 227.00
C 138.76 228.76 139.15 240.75 138.00 243.00 Z"/>
</g>
<g fill="#776CCA" fill-opacity="0.72" stroke="None">
<path d="
M 131.00 229.00 
C 130.43 232.96 130.29 239.90 132.00 243.00
C 131.01 238.34 133.45 232.52 132.00 228.00
C 131.82 228.27 131.22 228.70 131.00 229.00 Z"/>
</g>
<g fill="#7768E5" fill-opacity="0.83" stroke="None">
<path d="
M 126.00 242.00 
C 126.00 237.67 126.00 233.33 126.00 229.00
C 125.61 233.02 125.60 237.91 126.00 242.00 Z"/>
</g>
<g fill="#150D4C" fill-opacity="0.08" stroke="None">
<path d="
M 133.00 245.00 
C 132.94 244.97 132.11 243.19 132.00 243.00
C 130.29 239.90 130.43 232.96 131.00 229.00
C 129.48 231.07 130.91 236.04 130.00 238.00 C 129.10 239.96 131.78 246.07 133.00 245.00 Z"/>
</g>
<g fill="#000000" fill-opacity="0.02" stroke="None">
<path d="
M 234.00 236.00 
C 234.38 227.45 220.61 227.45 221.00 236.00
C 225.33 236.00 229.67 236.00 234.00 236.00 Z"/>
</g>
<g fill="#1C085D" fill-opacity="0.06" stroke="None">
<path d="
M 325.00 238.00 
C 324.65 238.05 324.05 239.02 324.00 239.00
C 326.02 239.65 335.04 239.73 336.00 238.00
C 335.78 237.70 335.11 237.26 335.00 237.00
C 332.01 237.90 328.52 237.49 325.00 238.00 Z"/>
</g>
<g fill="#7A6CDB" fill-opacity="0.72" stroke="None">
<path d="
M 324.00 239.00 
C 325.24 241.22 337.77 240.45 336.00 238.00
C 335.04 239.73 326.02 239.65 324.00 239.00 Z"/>
</g>
<g fill="#796CD1" fill-opacity="0.66" stroke="None">
<path d="
M 358.00 258.00 
C 358.00 258.00 357.75 258.74 358.00 259.00
C 361.67 259.00 365.33 259.00 369.00 259.00
C 369.00 253.00 369.00 247.00 369.00 241.00
C 366.68 245.67 368.65 252.50 368.00 258.00
C 364.69 258.23 361.31 257.70 358.00 258.00 Z"/>
</g>
<g fill="#DEDBE2" fill-opacity="0.65" stroke="None">
<path d="
M 220.00 243.00 
C 221.90 241.20 229.49 243.93 231.00 244.00
C 233.52 243.83 242.96 244.38 244.00 243.00
C 241.79 241.48 234.75 241.60 232.00 242.00 C 229.25 242.40 221.01 240.44 220.00 243.00 Z"/>
</g>
<g fill="#8E7990" fill-opacity="0.05" stroke="None">
<path d="
M 221.00 245.00 
C 222.24 245.24 228.75 244.15 231.00 244.00
C 229.49 243.93 221.90 241.20 220.00 243.00
C 219.55 244.13 220.72 244.44 221.00 245.00 Z"/>
</g>
<g fill="#A39EAA" fill-opacity="0.57" stroke="None">
<path d="
M 235.00 248.00 
C 237.70 247.28 241.62 247.93 244.00 249.00
C 243.03 245.41 237.45 246.95 235.00 248.00 Z"/>
</g>
<g fill="#7C7682" fill-opacity="0.41" stroke="None">
<path d="
M 268.00 257.00 
C 265.83 258.91 258.24 258.73 256.00 257.00
C 258.65 259.95 265.36 260.24 268.00 257.00 Z"/>
</g>
<g fill="#191A5F" fill-opacity="0.04" stroke="None">
<path d="
M 319.00 259.00 
C 316.34 260.18 307.55 259.63 307.00 257.00
C 306.87 260.18 316.61 262.67 319.00 259.00 Z"/>
</g>
<g fill="#796DCD" fill-opacity="0.61" stroke="None">
<path d="
M 319.00 259.00 
C 319.23 258.65 318.87 257.46 319.00 257.00
C 316.59 256.72 309.11 260.33 307.00 257.00
C 307.55 259.63 316.34 260.18 319.00 259.00 Z"/>
</g>
<g fill="#221C5A" fill-opacity="0.07" stroke="None">
<path d="
M 353.00 257.00 
C 353.00 257.00 353.25 257.74 353.00 258.00
C 351.20 259.86 343.79 259.65 342.00 258.00
C 341.74 257.76 341.16 257.27 341.00 257.00
C 341.95 262.64 349.97 258.94 354.00 260.00
C 354.22 258.60 353.84 257.82 353.00 257.00 Z"/>
</g>
<g fill="#7469C9" fill-opacity="0.57" stroke="None">
<path d="
M 380.00 258.00 
C 381.67 259.35 388.01 259.88 390.00 259.00
C 390.23 258.65 389.78 257.38 390.00 257.00
C 386.68 256.61 383.75 258.90 380.00 257.00
C 380.00 257.00 379.86 257.54 380.00 258.00 Z"/>
</g>
<g fill="#7C71D4" fill-opacity="0.62" stroke="None">
<path d="
M 353.00 258.00 
C 349.84 258.28 345.09 258.69 342.00 258.00
C 343.79 259.65 351.20 259.86 353.00 258.00 Z"/>
</g>
<g fill="#1A1D5E" fill-opacity="0.04" stroke="None">
<path d="
M 390.00 259.00 
C 388.01 259.88 381.67 259.35 380.00 258.00
C 380.85 260.84 388.67 261.04 390.00 259.00 Z"/>
</g>
<g fill="#231B5E" fill-opacity="0.04" stroke="None">
<path d="
M 413.00 259.00 
C 409.00 259.00 405.00 259.00 401.00 259.00
C 402.25 260.79 411.71 260.84 413.00 259.00 Z"/>
</g>
<g fill="#6C6775" fill-opacity="0.28" stroke="None">
<path d="
M 101.00 289.00 
C 102.63 287.37 100.79 274.95 104.00 276.00
C 103.73 274.53 102.00 275.11 101.00 275.00
C 99.40 278.63 103.13 285.71 101.00 289.00 Z"/>
</g>
<g fill="#ECE9F0" fill-opacity="0.88" stroke="None">
<path d="
M 208.00 293.00 
C 208.56 290.12 206.82 286.07 209.00 284.00
C 210.36 282.71 211.62 282.69 213.00 284.00
C 215.39 286.26 212.78 290.24 214.00 293.00
C 214.35 293.23 215.65 293.23 216.00 293.00
C 216.63 291.57 216.71 283.37 216.00 282.00
C 214.36 279.82 211.97 280.90 210.00 280.00
C 208.89 279.49 206.83 279.22 208.00 275.00
C 204.74 274.05 205.01 293.98 208.00 293.00 Z"/>
</g>
<g fill="#544F59" fill-opacity="0.25" stroke="None">
<path d="
M 210.00 280.00 
C 208.78 278.85 209.59 275.46 208.00 275.00
C 206.83 279.22 208.89 279.49 210.00 280.00 Z"/>
</g>
<g fill="#DBD7DF" fill-opacity="0.76" stroke="None">
<path d="
M 267.00 281.00 
C 264.13 271.08 250.33 275.68 251.01 284.99 C 251.69 294.30 264.17 296.57 267.00 288.00
C 261.77 290.68 253.92 291.25 255.01 283.01 C 256.10 274.76 262.34 279.98 267.00 281.00 Z"/>
</g>
<g fill="#E6E3EA" fill-opacity="0.82" stroke="None">
<path d="
M 283.00 284.00 
C 282.71 285.21 282.74 287.79 283.00 289.00
C 284.57 293.93 289.80 293.95 294.00 293.00
C 294.00 287.00 294.00 281.00 294.00 275.00
C 290.84 275.00 292.82 281.11 289.01 280.01 C 285.19 278.91 284.95 282.18 283.00 284.00
M 291.00 283.00 
C 294.04 284.92 291.77 292.55 287.77 290.21 C 283.77 287.88 286.91 280.42 291.00 283.00 Z"/>
</g>
<g fill="#E4E1E7" fill-opacity="0.82" stroke="None">
<path d="
M 316.00 282.00 
C 316.00 282.47 318.34 284.37 317.99 286.01 C 317.65 287.65 317.37 291.59 318.00 293.00
C 318.35 293.23 319.65 293.23 320.00 293.00
C 321.29 290.09 319.70 285.82 321.00 283.00
C 322.68 283.29 324.32 281.69 324.00 280.00
C 318.27 280.27 323.61 277.00 324.00 275.00
C 319.94 273.84 316.34 279.14 316.00 282.00 Z"/>
</g>
<g fill="#DEDAE3" fill-opacity="0.75" stroke="None">
<path d="
M 101.00 289.00 
C 98.54 292.42 96.74 287.02 94.00 288.00
C 98.42 303.45 111.25 283.25 104.00 276.00
C 100.79 274.95 102.63 287.37 101.00 289.00 Z"/>
</g>
<g fill="#EAE7ED" fill-opacity="0.82" stroke="None">
<path d="
M 147.00 283.00 
C 147.35 284.50 147.43 291.96 149.00 293.00
C 150.33 293.00 151.67 293.00 153.00 293.00
C 154.72 291.28 150.97 289.86 151.00 290.00
C 150.55 288.18 149.28 285.48 150.00 283.00
C 151.22 282.07 153.43 282.17 153.00 280.00
C 150.11 280.91 150.26 278.24 149.00 277.00
C 145.93 280.86 146.20 279.60 147.00 283.00 Z"/>
</g>
<g fill="#E3E0E6" fill-opacity="0.80" stroke="None">
<path d="
M 201.00 290.00 
C 199.82 287.43 198.65 281.04 204.00 282.00
C 202.87 279.54 199.69 278.87 198.00 277.00
C 196.43 281.40 195.51 293.62 204.00 293.00
C 205.49 290.77 201.17 290.38 201.00 290.00 Z"/>
</g>
<g fill="#E1DFE5" fill-opacity="0.79" stroke="None">
<path d="
M 118.00 293.00 
C 121.75 284.68 112.23 273.84 107.00 284.00
C 109.41 285.83 111.00 281.56 114.00 283.00
C 113.31 286.46 104.95 285.42 107.08 290.92 C 109.22 296.42 114.05 292.07 118.00 293.00
M 115.00 287.00 
C 115.09 289.47 112.42 291.54 110.00 291.00
C 109.01 287.73 112.86 287.61 115.00 287.00 Z"/>
</g>
<g fill="#DFDCE2" fill-opacity="0.76" stroke="None">
<path d="
M 127.00 284.00 
C 129.09 286.09 127.49 290.15 128.00 293.00
C 129.00 293.00 130.00 293.00 131.00 293.00
C 131.44 289.53 129.13 282.13 135.00 283.00
C 135.86 286.15 132.70 293.67 138.00 293.00
C 142.33 278.32 129.16 279.86 120.00 280.00
C 119.85 284.56 118.68 289.10 121.00 293.00
C 124.56 293.84 121.60 278.60 127.00 284.00 Z"/>
</g>
<g fill="#6D6A71" fill-opacity="0.32" stroke="None">
<path d="
M 151.00 290.00 
C 151.00 287.67 151.00 285.33 151.00 283.00
C 154.19 283.37 154.02 281.92 153.00 280.00
C 153.43 282.17 151.22 282.07 150.00 283.00
C 149.28 285.48 150.55 288.18 151.00 290.00 Z"/>
</g>
<g fill="#DBD8E0" fill-opacity="0.77" stroke="None">
<path d="
M 167.00 289.00 
C 166.51 288.09 167.16 286.04 167.00 285.00
C 165.72 276.68 155.05 279.75 155.00 287.00 C 154.96 294.24 165.34 296.14 167.00 289.00
M 163.00 283.00 
C 165.83 284.74 163.55 292.39 159.77 290.21 C 155.99 288.03 158.70 280.35 163.00 283.00 Z"/>
</g>
<g fill="#E3E0E7" fill-opacity="0.78" stroke="None">
<path d="
M 169.00 284.00 
C 168.77 284.89 169.65 289.57 169.00 290.00
C 170.98 293.14 174.95 295.00 178.00 292.00
C 179.03 298.72 171.27 294.03 169.00 296.00
C 180.88 304.43 182.82 288.75 181.00 280.00
C 175.45 279.58 173.03 280.24 169.00 284.00
M 177.00 283.00 
C 180.46 285.13 176.76 292.45 172.92 290.06 C 169.08 287.68 173.13 280.62 177.00 283.00 Z"/>
</g>
<g fill="#D9D6DC" fill-opacity="0.74" stroke="None">
<path d="
M 195.00 288.00 
C 197.02 278.94 184.09 277.51 182.34 285.32 C 180.58 293.13 191.51 296.33 195.00 290.00
C 191.72 288.31 189.29 292.12 186.00 290.00
C 186.43 286.04 192.24 288.84 195.00 288.00
M 192.00 284.00 
C 186.13 288.00 185.38 280.51 192.00 284.00 Z"/>
</g>
<g fill="#D6D3D9" fill-opacity="0.73" stroke="None">
<path d="
M 230.00 288.00 
C 233.21 278.84 219.78 277.34 218.00 285.00 C 216.22 292.66 227.51 297.15 230.00 290.00
C 226.97 288.16 223.12 293.20 221.00 288.00
C 224.00 288.00 227.00 288.00 230.00 288.00
M 227.00 284.00 
C 221.97 287.78 221.15 280.42 227.00 284.00 Z"/>
</g>
<g fill="#CDC9D0" fill-opacity="0.70" stroke="None">
<path d="
M 239.00 280.00 
C 236.27 280.46 234.67 280.49 232.00 280.00
C 233.16 284.18 228.89 294.15 236.00 293.00
C 234.75 287.63 237.28 283.80 239.00 280.00 Z"/>
</g>
<g fill="#DCD9E1" fill-opacity="0.77" stroke="None">
<path d="
M 281.00 288.00 
C 281.09 287.12 281.13 285.88 281.00 285.00
C 279.73 276.26 266.84 280.41 268.23 287.77 C 269.62 295.13 280.28 295.27 281.00 288.00
M 277.00 283.00 
C 280.16 284.99 277.83 292.13 273.77 290.21 C 269.71 288.30 272.82 280.36 277.00 283.00 Z"/>
</g>
<g fill="#DEDCE3" fill-opacity="0.77" stroke="None">
<path d="
M 309.00 288.00 
C 310.77 279.45 298.80 277.11 297.00 285.00 C 295.20 292.89 305.22 296.63 308.00 290.00
C 305.32 288.43 302.90 292.23 300.00 290.00
C 300.43 286.04 306.24 288.84 309.00 288.00
M 306.00 284.00 
C 299.89 287.94 299.07 280.22 306.00 284.00 Z"/>
</g>
<g fill="#D6D5DA" fill-opacity="0.75" stroke="None">
<path d="
M 333.00 280.00 
C 324.04 276.64 320.78 290.44 328.78 293.22 C 336.78 296.00 339.86 282.57 333.00 280.00
M 333.00 283.00 
C 334.16 286.06 331.86 293.07 328.25 289.74 C 324.65 286.41 328.85 281.34 333.00 283.00 Z"/>
</g>
<g fill="#65626D" fill-opacity="0.28" stroke="None">
<path d="
M 339.00 293.00 
C 339.00 288.67 339.00 284.33 339.00 280.00
C 337.66 281.19 336.79 292.28 339.00 293.00 Z"/>
</g>
<g fill="#E7E5ED" fill-opacity="0.82" stroke="None">
<path d="
M 339.00 293.00 
C 341.72 290.24 342.05 283.36 345.00 280.00
C 343.82 281.36 339.70 279.38 339.00 280.00
C 339.00 284.33 339.00 288.67 339.00 293.00 Z"/>
</g>
<g fill="#D7D5DB" fill-opacity="0.76" stroke="None">
<path d="
M 358.00 288.00 
C 360.36 279.43 347.45 277.08 346.00 285.00 C 344.55 292.92 354.14 296.47 358.00 290.00
C 354.69 288.15 351.80 292.83 349.00 289.00
C 351.02 286.78 355.16 288.59 358.00 288.00
M 355.00 284.00 
C 349.13 288.00 348.38 280.51 355.00 284.00 Z"/>
</g>
<g fill="#D8D6DD" fill-opacity="0.76" stroke="None">
<path d="
M 365.00 289.00 
C 363.25 285.77 364.47 278.63 359.00 280.00
C 361.15 282.93 360.32 292.74 364.97 292.97 C 369.63 293.21 370.19 283.13 371.00 280.00
C 366.20 279.51 368.03 286.81 365.00 289.00 Z"/>
</g>
<g fill="#DAD9DF" fill-opacity="0.78" stroke="None">
<path d="
M 384.00 288.00 
C 386.46 278.23 373.24 278.62 371.80 285.75 C 370.37 292.89 381.07 296.80 384.00 290.00
C 381.35 287.25 377.82 293.96 376.00 289.00
C 377.70 286.81 381.48 288.56 384.00 288.00
M 381.00 284.00 
C 384.21 287.01 372.75 287.06 376.00 284.00
C 377.49 282.60 379.53 282.62 381.00 284.00 Z"/>
</g>
<g fill="#E2DFE6" fill-opacity="0.76" stroke="None">
<path d="
M 389.00 293.00 
C 388.61 290.09 389.07 287.22 390.00 285.00
C 389.57 282.83 391.78 282.93 393.00 282.00
C 393.04 278.38 388.22 280.61 386.00 280.00
C 386.00 284.33 386.00 288.67 386.00 293.00
C 386.85 292.69 388.19 293.39 389.00 293.00 Z"/>
</g>
<g fill="#78757C" fill-opacity="0.39" stroke="None">
<path d="
M 201.00 290.00 
C 201.00 287.67 201.00 285.33 201.00 283.00
C 201.95 282.78 203.74 283.39 204.00 282.00
C 198.65 281.04 199.82 287.43 201.00 290.00 Z"/>
</g>
<g fill="#282531" fill-opacity="0.11" stroke="None">
<path d="
M 216.00 293.00 
C 218.20 291.57 217.29 283.72 216.00 282.00
C 216.71 283.37 216.63 291.57 216.00 293.00 Z"/>
</g>
<g fill="#514D57" fill-opacity="0.27" stroke="None">
<path d="
M 318.00 293.00 
C 317.37 291.59 317.65 287.65 317.99 286.01 C 318.34 284.37 316.00 282.47 316.00 282.00
C 315.83 283.43 316.90 292.29 318.00 293.00 Z"/>
</g>
<g fill="#443E49" fill-opacity="0.18" stroke="None">
<path d="
M 149.00 293.00 
C 147.43 291.96 147.35 284.50 147.00 283.00
C 147.24 285.89 145.54 291.71 149.00 293.00 Z"/>
</g>
<g fill="#000000" fill-opacity="0.01" stroke="None">
<path d="
M 163.00 283.00 
C 158.70 280.35 155.99 288.03 159.77 290.21 C 163.55 292.39 165.83 284.74 163.00 283.00 Z"/>
</g>
<g fill="#010102" fill-opacity="0.02" stroke="None">
<path d="
M 177.00 283.00 
C 173.13 280.62 169.08 287.68 172.92 290.06 C 176.76 292.45 180.46 285.13 177.00 283.00 Z"/>
</g>
<g fill="#050404" fill-opacity="0.04" stroke="None">
<path d="
M 192.00 284.00 
C 185.38 280.51 186.13 288.00 192.00 284.00 Z"/>
</g>
<g fill="#000000" fill-opacity="0.00" stroke="None">
<path d="
M 227.00 284.00 
C 221.15 280.42 221.97 287.78 227.00 284.00 Z"/>
</g>
<g fill="#000000" fill-opacity="0.02" stroke="None">
<path d="
M 277.00 283.00 
C 272.82 280.36 269.71 288.30 273.77 290.21 C 277.83 292.13 280.16 284.99 277.00 283.00 Z"/>
</g>
<g fill="#030304" fill-opacity="0.02" stroke="None">
<path d="
M 291.00 283.00 
C 286.91 280.42 283.77 287.88 287.77 290.21 C 291.77 292.55 294.04 284.92 291.00 283.00 Z"/>
</g>
<g fill="#060608" fill-opacity="0.04" stroke="None">
<path d="
M 306.00 284.00 
C 299.07 280.22 299.89 287.94 306.00 284.00 Z"/>
</g>
<g fill="#524E5D" fill-opacity="0.31" stroke="None">
<path d="
M 320.00 293.00 
C 322.56 291.34 320.26 285.68 321.00 283.00
C 319.70 285.82 321.29 290.09 320.00 293.00 Z"/>
</g>
<g fill="#000000" fill-opacity="0.02" stroke="None">
<path d="
M 333.00 283.00 
C 328.85 281.34 324.65 286.41 328.25 289.74 C 331.86 293.07 334.16 286.06 333.00 283.00 Z"/>
</g>
<g fill="#020202" fill-opacity="0.02" stroke="None">
<path d="
M 355.00 284.00 
C 348.38 280.51 349.13 288.00 355.00 284.00 Z"/>
</g>
<g fill="#020202" fill-opacity="0.04" stroke="None">
<path d="
M 376.00 284.00 
C 376.74 285.39 380.32 285.65 381.00 284.00
C 379.53 282.62 377.49 282.60 376.00 284.00 Z"/>
</g>
<g fill="#5C5865" fill-opacity="0.20" stroke="None">
<path d="
M 128.00 293.00 
C 127.49 290.15 129.09 286.09 127.00 284.00
C 128.31 286.10 125.23 291.65 128.00 293.00 Z"/>
</g>
<g fill="#58575A" fill-opacity="0.16" stroke="None">
<path d="
M 167.00 285.00 
C 167.16 286.04 166.51 288.09 167.00 289.00
C 167.09 289.16 168.74 289.79 169.00 290.00
C 169.65 289.57 168.77 284.89 169.00 284.00
C 168.64 284.34 167.28 284.48 167.00 285.00 Z"/>
</g>
<g fill="#58515E" fill-opacity="0.30" stroke="None">
<path d="
M 208.00 293.00 
C 210.89 292.06 207.67 285.85 209.00 284.00
C 206.82 286.07 208.56 290.12 208.00 293.00 Z"/>
</g>
<g fill="#74707A" fill-opacity="0.42" stroke="None">
<path d="
M 214.00 293.00 
C 212.78 290.24 215.39 286.26 213.00 284.00
C 214.59 286.22 211.23 291.20 214.00 293.00 Z"/>
</g>
<g fill="#59595D" fill-opacity="0.19" stroke="None">
<path d="
M 281.00 285.00 
C 281.13 285.88 281.09 287.12 281.00 288.00
C 281.09 288.20 282.75 288.72 283.00 289.00
C 282.74 287.79 282.71 285.21 283.00 284.00
C 282.66 284.31 281.24 284.49 281.00 285.00 Z"/>
</g>
<g fill="#C1C1C4" fill-opacity="0.48" stroke="None">
<path d="
M 381.00 284.00 
C 380.32 285.65 376.74 285.39 376.00 284.00
C 372.75 287.06 384.21 287.01 381.00 284.00 Z"/>
</g>
<g fill="#5C5760" fill-opacity="0.32" stroke="None">
<path d="
M 389.00 293.00 
C 391.31 291.88 389.45 287.11 390.00 285.00
C 389.07 287.22 388.61 290.09 389.00 293.00 Z"/>
</g>
<g fill="#151516" fill-opacity="0.06" stroke="None">
<path d="
M 115.00 287.00 
C 112.86 287.61 109.01 287.73 110.00 291.00
C 112.42 291.54 115.09 289.47 115.00 287.00 Z"/>
</g>
<g fill="#DEDAE5" fill-opacity="0.80" stroke="None">
<path d="
M 240.00 293.00 
C 247.59 293.87 239.45 286.25 240.00 293.00 Z"/>
</g>
<g fill="#D4CEDB" fill-opacity="0.80" stroke="None">
<path d="
M 397.00 290.00 
C 388.95 288.39 397.43 297.06 397.00 290.00 Z"/>
</g>
</svg>